<svg width="692" height="129" viewBox="0 0 692 129" fill="none" xmlns="http://www.w3.org/2000/svg">
<path fill-rule="evenodd" clip-rule="evenodd" d="M16.2231 2.55694C13.0941 4.74794 13.2341 9.45194 16.4931 11.5869C21.5631 14.9089 27.2131 10.3209 25.0521 4.63594C23.6141 0.855942 19.9001 -0.01906 16.2231 2.55694ZM29.1661 2.59594C23.7841 6.36594 29.3651 14.9769 35.4071 12.2239C37.5661 11.2399 38.0001 10.3759 38.0001 7.05694C38.0001 1.36694 33.8861 -0.710059 29.1661 2.59594ZM41.5801 2.91194C37.2031 7.74794 42.9941 15.1999 48.3851 11.6669C53.0881 8.58594 51.0961 0.999941 45.5841 0.999941C44.3331 0.999941 42.5321 1.85994 41.5801 2.91194ZM69.5801 2.91194C65.2031 7.74794 70.9941 15.1999 76.3851 11.6669C78.2791 10.4259 79.0001 9.09494 79.0001 6.83694C79.0001 1.52094 73.0741 -0.949061 69.5801 2.91194ZM82.9381 2.28194C76.9211 6.97394 83.1291 15.7669 89.5071 11.5869C91.1901 10.4849 92.0001 9.03594 92.0001 7.13194C92.0001 2.19494 86.6921 -0.646058 82.9381 2.28194ZM95.0001 2.99994C89.6981 8.30194 96.5861 15.7799 102.777 11.4429C107.206 8.34194 104.394 0.999941 98.7771 0.999941C97.8001 0.999941 96.1001 1.89994 95.0001 2.99994ZM108 2.99994C102.698 8.30194 109.586 15.7799 115.777 11.4429C120.206 8.34194 117.394 0.999941 111.777 0.999941C110.8 0.999941 109.1 1.89994 108 2.99994ZM121.223 2.55694C116.794 5.65794 119.606 12.9999 125.223 12.9999C127.781 12.9999 131 9.40994 131 6.55694C131 4.01394 127.745 0.999941 125 0.999941C124.145 0.999941 122.445 1.70094 121.223 2.55694ZM149 2.99994C145.415 6.58494 147.981 12.9999 153 12.9999C154.1 12.9999 155.9 12.0999 157 10.9999C158.1 9.89994 159 8.09994 159 6.99994C159 5.89994 158.1 4.09994 157 2.99994C155.9 1.89994 154.1 0.999941 153 0.999941C151.9 0.999941 150.1 1.89994 149 2.99994ZM187.58 2.91194C183.203 7.74794 188.994 15.1999 194.385 11.6669C199.088 8.58594 197.096 0.999941 191.584 0.999941C190.333 0.999941 188.532 1.85994 187.58 2.91194ZM215.68 2.44294C214.415 3.40194 213.958 4.83194 214.18 7.12994C214.929 14.8729 225 14.2979 225 6.51194C225 1.48694 219.887 -0.746058 215.68 2.44294ZM228.571 2.57094C227.707 3.43594 227 5.69694 227 7.59594C227 14.3579 237.042 14.3899 237.825 7.62994C238.445 2.27494 232.253 -1.11006 228.571 2.57094ZM241.746 2.24994C238.946 4.38794 238.547 8.54694 240.913 10.9129C244.749 14.7489 251 12.3239 251 6.99994C251 2.29894 245.427 -0.562059 241.746 2.24994ZM295 2.99994C291.415 6.58494 293.981 12.9999 299 12.9999C300.1 12.9999 301.9 12.0999 303 10.9999C304.1 9.89994 305 8.09994 305 6.99994C305 5.89994 304.1 4.09994 303 2.99994C301.9 1.89994 300.1 0.999941 299 0.999941C297.9 0.999941 296.1 1.89994 295 2.99994ZM308.223 2.55694C303.794 5.65794 306.606 12.9999 312.223 12.9999C313.2 12.9999 314.9 12.0999 316 10.9999C321.302 5.69794 314.414 -1.78006 308.223 2.55694ZM349.223 2.55694C344.281 6.01794 348.382 14.1249 354.321 12.6339C357.344 11.8759 359.251 7.79094 358.053 4.63994C356.615 0.85594 352.901 -0.0200599 349.223 2.55694ZM374.571 2.57094C370.063 7.07994 375.382 14.9719 380.865 11.9089C382.54 10.9729 383.618 9.41394 383.825 7.62994C384.445 2.27494 378.253 -1.11006 374.571 2.57094ZM387.75 2.07994C385.524 3.37694 385.411 9.26794 387.571 11.4289C389.563 13.4199 391.948 13.4249 394.777 11.4429C400.788 7.23394 394.13 -1.63606 387.75 2.07994ZM415.75 2.07994C414.622 2.73694 414 4.31794 414 6.52694C414 13.9029 423.981 14.9209 424.825 7.62994C425.417 2.51694 420.335 -0.591057 415.75 2.07994ZM482 2.99994C478.415 6.58494 480.981 12.9999 486 12.9999C487.1 12.9999 488.9 12.0999 490 10.9999C491.1 9.89994 492 8.09994 492 6.99994C492 5.89994 491.1 4.09994 490 2.99994C488.9 1.89994 487.1 0.999941 486 0.999941C484.9 0.999941 483.1 1.89994 482 2.99994ZM510.223 2.55694C505.794 5.65794 508.606 12.9999 514.223 12.9999C515.2 12.9999 516.9 12.0999 518 10.9999C523.302 5.69794 516.414 -1.78006 510.223 2.55694ZM522.655 2.82894C520.168 5.57694 520.559 9.66494 523.493 11.5869C528.563 14.9089 534.213 10.3209 532.052 4.63594C530.557 0.704942 525.463 -0.274061 522.655 2.82894ZM535.655 2.82894C531.312 7.62794 536.348 14.9909 541.865 11.9089C543.54 10.9729 544.618 9.41394 544.825 7.62994C545.461 2.13394 539.234 -1.12706 535.655 2.82894ZM589.75 2.07994C586.786 3.80694 587.363 10.7529 590.593 12.2239C596.635 14.9769 602.216 6.36594 596.834 2.59594C594.225 0.768941 592.249 0.624943 589.75 2.07994ZM602 2.99994C598.415 6.58494 600.981 12.9999 606 12.9999C608.576 12.9999 612 9.57594 612 6.99994C612 4.42394 608.576 0.999941 606 0.999941C604.9 0.999941 603.1 1.89994 602 2.99994ZM643 2.99994C639.415 6.58494 641.981 12.9999 647 12.9999C649.576 12.9999 653 9.57594 653 6.99994C653 4.42394 649.576 0.999941 647 0.999941C645.9 0.999941 644.1 1.89994 643 2.99994ZM2.41306 16.4929C-0.94894 21.6239 3.68206 27.2119 9.47206 25.0109C15.0001 22.9089 13.0001 13.9999 7.00006 13.9999C4.95506 13.9999 3.54406 14.7669 2.41306 16.4929ZM95.0001 15.9999C91.5601 19.4399 92.9951 23.9109 98.0551 25.5169C101.159 26.5029 105 23.5239 105 20.1319C105 14.6329 98.8911 12.1089 95.0001 15.9999ZM148.413 16.4929C145.051 21.6239 149.682 27.2119 155.472 25.0109C161 22.9089 159 13.9999 153 13.9999C150.955 13.9999 149.544 14.7669 148.413 16.4929ZM187.517 15.6249C185.053 18.0889 185.93 23.1189 189.135 24.9089C193.024 27.0819 197 24.3529 197 19.5119C197 14.3949 191.147 11.9959 187.517 15.6249ZM215.612 15.2939C214.373 16.1999 213.941 17.6149 214.171 20.0129C214.924 27.8569 225 27.3909 225 19.5119C225 14.5519 219.814 12.2219 215.612 15.2939ZM254 15.9999C250.192 19.8079 252.445 25.3329 257.805 25.3329C261.795 25.3329 264 23.4459 264 20.0329C264 14.6229 257.855 12.1449 254 15.9999ZM281.557 16.2229C278.701 20.2989 280.272 24.3539 285.163 25.5319C290.475 26.8109 294.257 19.3519 290.171 15.6549C287.561 13.2929 283.418 13.5659 281.557 16.2229ZM320.517 15.6249C318.026 18.1169 318.931 23.1199 322.204 24.9479C327.606 27.9659 333.425 20.4249 329.061 16.0609C326.588 13.5879 322.751 13.3919 320.517 15.6249ZM348.655 15.8289C346.184 18.5589 346.559 22.6649 349.451 24.5599C352.405 26.4949 355.47 25.7389 357.553 22.5589C361.252 16.9139 353.191 10.8169 348.655 15.8289ZM361.571 15.5709C357.267 19.8759 362.124 27.6309 367.57 25.1499C373.521 22.4389 371.829 14.0609 365.321 14.0149C364.123 14.0069 362.436 14.7069 361.571 15.5709ZM415.75 15.0799C414.622 15.7369 414 17.3179 414 19.5269C414 26.9029 423.981 27.9209 424.825 20.6299C425.417 15.5169 420.335 12.4089 415.75 15.0799ZM481.655 15.8289C477.298 20.6439 482.286 27.3629 488.472 25.0109C493.913 22.9419 492.012 13.9999 486.132 13.9999C484.58 13.9999 482.565 14.8229 481.655 15.8289ZM509.655 15.8289C507.571 18.1319 507.518 22.3549 509.553 24.0439C511.871 25.9679 517.057 25.6429 518.642 23.4759C522.858 17.7089 514.438 10.5439 509.655 15.8289ZM548.75 15.0799C547.622 15.7369 547 17.3179 547 19.5269C547 26.9029 556.981 27.9209 557.825 20.6299C558.417 15.5169 553.335 12.4089 548.75 15.0799ZM576.75 15.0799C575.622 15.7369 575 17.3179 575 19.5269C575 26.9029 584.981 27.9209 585.825 20.6299C586.417 15.5169 581.335 12.4089 576.75 15.0799ZM614.413 16.4929C611.051 21.6239 615.682 27.2119 621.472 25.0109C627 22.9089 625 13.9999 619 13.9999C616.955 13.9999 615.544 14.7669 614.413 16.4929ZM642.413 16.4929C639.051 21.6239 643.682 27.2119 649.472 25.0109C655 22.9089 653 13.9999 647 13.9999C644.955 13.9999 643.544 14.7669 642.413 16.4929ZM2.41306 29.4929C-1.01494 34.7249 3.84006 40.3969 9.52806 37.8049C14.9321 35.3429 12.9801 26.9999 7.00006 26.9999C4.95506 26.9999 3.54406 27.7669 2.41306 29.4929ZM15.6551 28.8289C10.5551 34.4639 18.1751 41.9159 23.5451 36.5449C26.1481 33.9429 26.2141 31.3229 23.7551 28.2499C22.2731 26.3979 17.5501 26.7349 15.6551 28.8289ZM28.5171 28.6249C23.9451 33.1979 30.1611 41.0899 35.5531 37.5569C38.2531 35.7879 38.9751 30.3749 36.8001 28.1999C35.0811 26.4809 30.4231 26.7199 28.5171 28.6249ZM41.5171 28.6249C39.0531 31.0889 39.9301 36.1189 43.1351 37.9089C47.0241 40.0819 51.0001 37.3529 51.0001 32.5119C51.0001 27.3949 45.1471 24.9959 41.5171 28.6249ZM94.9391 29.0609C92.3191 31.6809 92.7681 34.7549 96.1351 37.2589C99.8281 40.0049 104.355 37.9739 104.804 33.3679C105.373 27.5379 99.1701 24.8299 94.9391 29.0609ZM148.655 28.8289C144.218 33.7319 149.455 40.5719 155.528 37.8049C158.791 36.3179 159.688 32.6989 157.587 29.4929C155.609 26.4739 151.09 26.1379 148.655 28.8289ZM161.655 28.8289C156.555 34.4639 164.175 41.9159 169.545 36.5449C172.148 33.9429 172.214 31.3229 169.755 28.2499C168.273 26.3979 163.55 26.7349 161.655 28.8289ZM174.517 28.6249C169.945 33.1979 176.161 41.0899 181.553 37.5569C184.253 35.7879 184.975 30.3749 182.8 28.1999C181.081 26.4809 176.423 26.7199 174.517 28.6249ZM187.517 28.6249C185.053 31.0889 185.93 36.1189 189.135 37.9089C193.024 40.0819 197 37.3529 197 32.5119C197 27.3949 191.147 24.9959 187.517 28.6249ZM215.612 28.2939C214.373 29.1999 213.941 30.6149 214.171 33.0129C214.924 40.8569 225 40.3909 225 32.5119C225 27.5519 219.814 25.2219 215.612 28.2939ZM228.75 28.0799C227.622 28.7369 227 30.3179 227 32.5269C227 40.2259 237.098 40.7019 237.829 33.0369C238.319 27.8899 233.549 25.2849 228.75 28.0799ZM240.44 29.4509C238.489 32.4289 239.266 35.4729 242.523 37.6069C247.849 41.0969 254.007 33.1499 249.483 28.6249C246.987 26.1299 242.338 26.5549 240.44 29.4509ZM281.413 29.4929C279.312 32.6989 280.209 36.3179 283.472 37.8049C289.628 40.6099 295.109 33.1239 290.171 28.6549C287.423 26.1679 283.335 26.5589 281.413 29.4929ZM294.655 28.8289C291.093 32.7649 293.639 38.3329 299 38.3329C302.612 38.3329 305 35.9969 305 32.4639C305 27.6639 297.951 25.1869 294.655 28.8289ZM307.571 28.5709C304.508 31.6349 306.189 37.1149 310.593 38.4169C313.109 39.1599 318 35.6819 318 33.1499C318 28.0059 311.146 24.9969 307.571 28.5709ZM320.571 28.5709C318.691 30.4509 318.499 35.3539 320.25 36.7549C326.234 41.5429 334.35 34.3499 329 28.9999C326.603 26.6029 322.736 26.4069 320.571 28.5709ZM348.571 28.5709C345.979 31.1639 346.884 36.1919 350.231 37.7879C355.328 40.2189 360.219 35.3279 357.788 30.2309C356.192 26.8839 351.164 25.9789 348.571 28.5709ZM415.2 28.1999C413.025 30.3749 413.747 35.7879 416.447 37.5569C421.839 41.0899 428.055 33.1979 423.483 28.6249C421.577 26.7199 416.919 26.4809 415.2 28.1999ZM481.655 28.8289C477.218 33.7319 482.455 40.5719 488.528 37.8049C491.791 36.3179 492.688 32.6989 490.587 29.4929C488.609 26.4739 484.09 26.1379 481.655 28.8289ZM509.517 28.6249C504.716 33.4269 511.428 41.3089 516.865 37.2539C520.148 34.8049 520.626 32.6039 518.56 29.4509C516.662 26.5549 512.013 26.1299 509.517 28.6249ZM548.75 28.0799C547.622 28.7369 547 30.3179 547 32.5269C547 40.2259 557.098 40.7019 557.829 33.0369C558.319 27.8899 553.549 25.2849 548.75 28.0799ZM576.2 28.1999C573.953 30.4469 574.752 35.7909 577.615 37.6669C582.98 41.1829 589.049 33.1919 584.483 28.6249C582.577 26.7199 577.919 26.4809 576.2 28.1999ZM614.413 29.4929C611.051 34.6239 615.682 40.2119 621.472 38.0109C627 35.9089 625 26.9999 619 26.9999C616.955 26.9999 615.544 27.7669 614.413 29.4929ZM643.2 28.1999C641.062 30.3379 641.744 35.7859 644.365 37.5039C649.957 41.1679 656.17 33.3119 651.429 28.5709C649.569 26.7119 644.899 26.5009 643.2 28.1999ZM668.655 28.8289C664.151 33.8059 669.999 41.1959 675.559 37.5529C678.739 35.4699 679.495 32.4049 677.56 29.4509C675.609 26.4729 671.074 26.1559 668.655 28.8289ZM657.895 40.3649C654.147 42.2329 654.424 49.0739 658.303 50.4379C663.095 52.1229 667.151 48.1429 665.462 43.4119C664.264 40.0579 661.081 38.7769 657.895 40.3649ZM2.65506 41.8289C-0.24994 45.0379 0.624059 48.7119 4.81706 50.9209C9.61106 53.4469 14.6321 47.1389 11.5601 42.4509C9.60906 39.4729 5.07406 39.1559 2.65506 41.8289ZM94.5571 42.2229C92.4751 45.1949 92.5951 47.3239 94.9671 49.4699C99.0061 53.1249 105 51.0219 105 45.9489C105 40.2569 97.7461 37.6689 94.5571 42.2229ZM148.655 41.8289C145.75 45.0379 146.624 48.7119 150.817 50.9209C155.611 53.4469 160.632 47.1389 157.56 42.4509C155.609 39.4729 151.074 39.1559 148.655 41.8289ZM187.035 41.9339C184.47 46.7279 186.637 51.2499 191.5 51.2499C196.331 51.2499 199.183 44.5829 195.8 41.1999C193.846 39.2459 188.222 39.7169 187.035 41.9339ZM215.2 41.1999C211.817 44.5829 214.669 51.2499 219.5 51.2499C224.331 51.2499 227.183 44.5829 223.8 41.1999C222.25 39.6499 216.75 39.6499 215.2 41.1999ZM253.655 41.8289C251.246 44.4909 251.625 47.5599 254.657 49.9449C258.778 53.1859 264 50.6349 264 45.3799C264 40.4569 257.054 38.0729 253.655 41.8289ZM281.44 42.4509C279.505 45.4049 280.261 48.4699 283.441 50.5529C289.086 54.2519 295.183 46.1909 290.171 41.6549C287.441 39.1839 283.335 39.5589 281.44 42.4509ZM348.571 41.5709C345.154 44.9889 347.642 51.2499 352.417 51.2499C357.424 51.2499 360.198 45.3529 357.003 41.5029C355.372 39.5379 350.566 39.5769 348.571 41.5709ZM415.2 41.1999C413.512 42.8879 413.706 48.5109 415.503 50.0029C420.95 54.5229 428.426 46.5689 423.429 41.5709C421.569 39.7119 416.899 39.5009 415.2 41.1999ZM481.655 41.8289C477.151 46.8059 482.999 54.1959 488.559 50.5529C491.739 48.4699 492.495 45.4049 490.56 42.4509C488.609 39.4729 484.074 39.1559 481.655 41.8289ZM509.571 41.5709C506.111 45.0319 508.646 51.2499 513.518 51.2499C516.344 51.2499 520 48.0699 520 45.6119C520 40.9529 512.929 38.2139 509.571 41.5709ZM548.2 41.1999C546.512 42.8879 546.706 48.5109 548.503 50.0029C552.461 53.2869 558 50.6109 558 45.4129C558 40.6749 551.513 37.8869 548.2 41.1999ZM576.2 41.1999C574.512 42.8879 574.706 48.5109 576.503 50.0029C580.245 53.1079 586 50.6519 586 45.9489C586 40.9659 579.557 37.8429 576.2 41.1999ZM614.575 41.9179C612.282 44.4509 612.894 47.8489 616.07 50.2099C621.263 54.0719 627.188 47.9889 623.587 42.4929C621.584 39.4349 617.081 39.1479 614.575 41.9179ZM643.2 41.1999C639.714 44.6859 642.717 50.9999 647.863 50.9999C652.119 50.9999 654.837 44.2369 651.8 41.1999C650.25 39.6499 644.75 39.6499 643.2 41.1999ZM668.035 41.9339C666.474 44.8509 666.784 47.4949 668.912 49.4199C673.747 53.7959 681.105 47.8619 677.557 42.4469C675.495 39.2989 669.615 38.9829 668.035 41.9339ZM681.035 41.9339C678.47 46.7279 680.637 51.2499 685.5 51.2499C690.331 51.2499 693.183 44.5829 689.8 41.1999C687.846 39.2459 682.222 39.7169 681.035 41.9339ZM15.5711 54.5709C13.5361 56.6069 13.5621 60.4189 15.6251 62.4829C18.0891 64.9469 23.1191 64.0699 24.9091 60.8649C27.9721 55.3819 20.0801 50.0629 15.5711 54.5709ZM28.0351 54.9339C25.5761 59.5289 27.9611 63.9999 32.8711 63.9999C36.4351 63.9999 38.0001 62.3219 38.0001 58.4999C38.0001 53.0689 30.4751 50.3759 28.0351 54.9339ZM41.2001 54.1999C37.7201 57.6799 40.4931 63.9999 45.5001 63.9999C47.2051 63.9999 49.1401 63.4599 49.8001 62.7999C50.4601 62.1399 51.0001 60.2049 51.0001 58.4999C51.0001 53.4929 44.6801 50.7199 41.2001 54.1999ZM94.3331 55.6149C90.8171 60.9799 98.8081 67.0489 103.375 62.4829C105.28 60.5769 105.519 55.9189 103.8 54.1999C101.553 51.9529 96.2091 52.7519 94.3331 55.6149ZM148.655 54.8289C145.225 58.6189 147.934 63.9999 153.272 63.9999C156.013 63.9999 159 60.8359 159 57.9319C159 53.6019 151.737 51.4229 148.655 54.8289ZM187.2 54.1999C186.54 54.8599 186 56.7949 186 58.4999C186 60.2049 186.54 62.1399 187.2 62.7999C187.86 63.4599 189.795 63.9999 191.5 63.9999C193.205 63.9999 195.14 63.4599 195.8 62.7999C196.46 62.1399 197 60.2049 197 58.4999C197 53.4929 190.68 50.7199 187.2 54.1999ZM215.2 54.1999C214.54 54.8599 214 56.7949 214 58.4999C214 60.2049 214.54 62.1399 215.2 62.7999C215.86 63.4599 217.795 63.9999 219.5 63.9999C221.205 63.9999 223.14 63.4599 223.8 62.7999C224.46 62.1399 225 60.2049 225 58.4999C225 53.4929 218.68 50.7199 215.2 54.1999ZM228.2 54.1999C227.54 54.8599 227 56.7949 227 58.4999C227 60.2049 227.54 62.1399 228.2 62.7999C228.86 63.4599 230.795 63.9999 232.5 63.9999C234.205 63.9999 236.14 63.4599 236.8 62.7999C237.46 62.1399 238 60.2049 238 58.4999C238 53.4929 231.68 50.7199 228.2 54.1999ZM240.333 55.6149C236.817 60.9799 244.808 67.0489 249.375 62.4829C251.28 60.5769 251.519 55.9189 249.8 54.1999C247.553 51.9529 242.209 52.7519 240.333 55.6149ZM294.571 54.5709C291.081 58.0619 293.98 63.9999 299.174 63.9999C302.121 63.9999 305 61.1969 305 58.3259C305 53.7969 297.902 51.2409 294.571 54.5709ZM307.035 54.9339C304.566 59.5469 306.964 63.9999 311.916 63.9999C314.835 63.9999 318 61.3439 318 58.8939C318 53.7079 309.361 50.5879 307.035 54.9339ZM320.2 54.1999C318.481 55.9189 318.72 60.5769 320.625 62.4829C325.192 67.0489 333.183 60.9799 329.667 55.6149C327.791 52.7519 322.447 51.9529 320.2 54.1999ZM348.035 54.9339C345.559 59.5609 347.966 63.9999 352.949 63.9999C356.273 63.9999 358.25 61.9489 358.25 58.4999C358.25 53.2279 350.412 50.4919 348.035 54.9339ZM414.997 54.5029C411.892 58.2449 414.348 63.9999 419.051 63.9999C424.034 63.9999 426.441 59.5609 423.965 54.9339C422.695 52.5619 416.842 52.2809 414.997 54.5029ZM427.997 54.5029C424.892 58.2449 427.348 63.9999 432.051 63.9999C437.034 63.9999 439.441 59.5609 436.965 54.9339C435.695 52.5619 429.842 52.2809 427.997 54.5029ZM440.333 55.6149C438.798 57.9579 438.773 58.5049 440.091 60.8649C442.895 65.8829 451 64.0639 451 58.4159C451 52.9039 443.414 50.9119 440.333 55.6149ZM453.571 54.5709C449.89 58.2529 453.275 64.4449 458.63 63.8249C460.414 63.6179 461.973 62.5399 462.909 60.8649C465.972 55.3819 458.08 50.0629 453.571 54.5709ZM481.571 54.5709C477.983 58.1589 480.736 63.9999 486.015 63.9999C489.017 63.9999 492 60.9759 492 57.9319C492 53.7509 484.734 51.4089 481.571 54.5709ZM509.035 54.9339C506.438 59.7869 509.148 64.3149 514.344 63.8039C521.904 63.0609 521.129 52.9999 513.512 52.9999C511.133 52.9999 509.751 53.5969 509.035 54.9339ZM548.2 54.1999C544.72 57.6799 547.493 63.9999 552.5 63.9999C556.425 63.9999 558 62.4249 558 58.4999C558 53.4929 551.68 50.7199 548.2 54.1999ZM589.2 54.1999C585.87 57.5299 588.463 63.9999 593.129 63.9999C598.039 63.9999 600.424 59.5289 597.965 54.9339C596.778 52.7169 591.154 52.2459 589.2 54.1999ZM601.333 55.6149C599.798 57.9569 599.773 58.5059 601.091 60.8649C603.955 65.9929 612 64.2489 612 58.4999C612 52.9129 604.442 50.8689 601.333 55.6149ZM668.2 54.1999C664.87 57.5299 667.463 63.9999 672.129 63.9999C677.042 63.9999 680.127 57.5269 676.8 54.1999C675.25 52.6499 669.75 52.6499 668.2 54.1999ZM128.18 96.2499C128.437 98.0569 129.238 98.5609 132.25 98.8099L136 99.1209V111V122.879L132.25 123.19C129.238 123.439 128.437 123.943 128.18 125.75C127.865 127.968 128.02 128 139 128C149.98 128 150.135 127.968 149.82 125.75C149.563 123.943 148.762 123.439 145.75 123.19L142 122.879V111V99.1209L145.75 98.8099C148.762 98.5609 149.563 98.0569 149.82 96.2499C150.135 94.0319 149.98 93.9999 139 93.9999C128.02 93.9999 127.865 94.0319 128.18 96.2499ZM159.397 95.4079C158.67 97.3029 159.691 98.9999 161.559 98.9999C164.234 98.9999 163.607 122.608 160.913 123.312C155.331 124.772 159.304 127.5 167.014 127.5H174.5L178.25 120.113C180.313 116.051 182 111.95 182 111C182 110.05 180.313 105.949 178.25 101.887L174.5 94.4999L167.236 94.2059C161.516 93.9739 159.849 94.2299 159.397 95.4079ZM191 111V128H202.07C212.977 128 213.134 127.967 212.82 125.75C212.522 123.652 211.942 123.48 204.25 123.21L196 122.919V118.52C196 114.158 196.032 114.118 199.75 113.81C203.001 113.541 203.5 113.167 203.5 111C203.5 108.833 203.001 108.459 199.75 108.19C196.032 107.882 196 107.842 196 103.48V99.0809L204.25 98.7899C211.942 98.5199 212.522 98.3479 212.82 96.2499C213.134 94.0329 212.977 93.9999 202.07 93.9999H191V111ZM222 110.94V128H224.5H227L227.039 115.75C227.077 103.917 227.13 103.619 228.594 107C238.602 130.116 237.941 129 241.632 129H245.047L244.774 111.75L244.5 94.4999H242C239.515 94.4999 239.497 94.5669 239 105.499L238.5 116.499L233.843 105.499C229.229 94.5999 229.154 94.4969 225.593 94.1899L222 93.8789V110.94ZM254 97.9409C254 100.109 254.409 102.135 254.91 102.444C256.306 103.307 259 101.956 259 100.393C259 99.6269 259.663 98.9999 260.473 98.9999C261.687 98.9999 261.994 101.492 262.223 113.238C262.476 126.257 262.661 127.506 264.38 127.836C267.449 128.425 267.969 126.177 267.985 112.25C268 99.4009 269.53 94.2689 271.312 101.087C272.335 104.995 275.461 103.016 275.807 98.2409L276.115 93.9999H265.057H254V97.9409ZM285.18 96.2499C285.446 98.1199 286.217 98.5519 289.75 98.8069L294 99.1149V111V122.885L289.75 123.193C286.217 123.448 285.446 123.88 285.18 125.75C284.865 127.968 285.02 128 296 128C306.98 128 307.135 127.968 306.82 125.75C306.563 123.943 305.762 123.439 302.75 123.19L299 122.879V111V99.1209L302.75 98.8099C305.762 98.5609 306.563 98.0569 306.82 96.2499C307.135 94.0319 306.98 93.9999 296 93.9999C285.02 93.9999 284.865 94.0319 285.18 96.2499ZM316 97.3779C316 99.2349 316.618 101.268 317.373 101.895C319.04 103.278 322 102.318 322 100.393C322 99.6269 322.675 98.9999 323.5 98.9999C324.764 98.9999 325 101.278 325 113.5V128H327.5H330V113.5C330 99.9659 330.125 98.9999 331.883 98.9999C332.952 98.9999 334.003 99.9029 334.312 101.087C335.335 104.995 338.461 103.016 338.807 98.2409L339.115 93.9999H327.557H316V97.3779ZM348 97.6579C348 100.387 349.003 102.616 351.954 106.44C355.702 111.298 355.924 111.982 356.204 119.533C356.492 127.286 356.567 127.5 359 127.5C361.429 127.5 361.508 127.278 361.794 119.649C362.071 112.256 362.318 111.493 366.044 106.558C370.981 100.019 371.679 93.9999 367.5 93.9999C365.592 93.9999 365 94.5199 365 96.1959C365 98.3259 360.353 106.037 359.114 105.964C357.694 105.879 353 98.4899 353 96.3389C353 94.5109 352.454 93.9999 350.5 93.9999C348.289 93.9999 348 94.4229 348 97.6579ZM449.273 95.2089C442.04 104.192 441.025 111.545 445.782 120.5L449.5 127.5H457C467.154 127.5 468.685 123.718 458.741 123.2L452.983 122.9L450.491 117.983C449.121 115.279 448 112.137 448 111C448 109.863 449.121 106.721 450.491 104.017L452.983 99.0999L458.741 98.7999C463.733 98.5399 464.5 98.2339 464.5 96.4999C464.5 94.0149 451.146 92.8829 449.273 95.2089ZM474 111V128H476.461C478.866 128 478.929 127.801 479.211 119.25L479.5 110.5L485.5 119.225C490.009 125.781 492.059 127.956 493.75 127.975C497.283 128.014 496.533 125.143 490.932 117.194L485.864 110H488.709C493.723 110 496 107.532 496 102.098C496 94.9969 494.42 93.9999 483.171 93.9999H474V111ZM505.393 95.4179C504.448 97.8809 505.905 98.9999 510.059 98.9999H514V110.943V122.885L509.75 123.193C506.269 123.444 505.5 123.862 505.5 125.5C505.5 127.379 506.167 127.5 516.5 127.5C526.833 127.5 527.5 127.379 527.5 125.5C527.5 123.862 526.731 123.444 523.25 123.193L519 122.885V111V99.1149L523.25 98.8069C526.731 98.5559 527.5 98.1379 527.5 96.4999C527.5 93.8359 506.397 92.8029 505.393 95.4179ZM538.2 95.1999C535.477 97.9229 536.982 101.628 545 111.938C554.506 124.162 554.244 123 547.5 123C543.466 123 542 122.629 542 121.607C542 120.026 540.112 119.081 538.25 119.731C536.656 120.287 536.621 125.221 538.2 126.8C539.821 128.421 556.179 128.421 557.8 126.8C559.896 124.704 559.104 120.835 555.712 116.603C553.904 114.346 550.04 109.463 547.126 105.75L541.828 98.9999H547.914C552.546 98.9999 554 99.3439 554 100.441C554 102.334 555.432 103.155 557.41 102.396C559.559 101.571 559.422 97.6919 557.171 95.6549C554.925 93.6219 540.132 93.2679 538.2 95.1999ZM568.18 96.2499C568.446 98.1199 569.217 98.5519 572.75 98.8069L577 99.1149V111V122.885L572.75 123.193C569.217 123.448 568.446 123.88 568.18 125.75C567.841 128.138 589.009 129.412 590.444 127.09C591.805 124.889 589.703 123 585.893 123H582V111V98.9999H585.893C589.703 98.9999 591.805 97.1109 590.444 94.9099C589.009 92.5879 567.841 93.8619 568.18 96.2499ZM600.452 96.4329C598.439 99.5039 598.895 100.416 608.739 113L616.171 122.5L611.039 122.804C606.761 123.057 605.615 122.746 604.147 120.933C600.738 116.723 597.928 122.421 601.278 126.75C601.92 127.58 605.163 128 610.922 128C625.04 128 625.378 125.611 613.452 110.11L604.904 98.9999H610.33C614.703 98.9999 616.022 99.4009 617.128 101.065C618.863 103.677 622 102.7 622 99.5479C622 93.5869 604.02 90.9869 600.452 96.4329ZM11.0001 101.557C-1.39194 109.95 -1.39194 110.102 10.9461 118.317C21.0621 125.052 24.3141 126.229 25.3511 123.529C26.0721 121.649 24.7681 120.387 16.6321 115.086C8.53006 109.807 8.53006 110.193 16.6321 104.914C24.7681 99.6129 26.0721 98.3509 25.3511 96.4709C24.3081 93.7539 20.5581 95.0829 11.0001 101.557ZM43.5001 100.813C32.1461 108.171 31.1011 109.349 33.5351 112.038C36.5301 115.348 52.8301 125.179 54.7191 124.816C58.9251 124.006 57.0931 121.073 49.0871 115.798C39.3801 109.403 39.3801 110.597 49.0871 104.202C54.6871 100.512 57.0301 98.3869 56.8041 97.2019C56.1911 93.9849 52.4831 94.9919 43.5001 100.813ZM73.7501 101.557C61.0961 109.875 61.1011 110.156 74.0241 118.516C84.8041 125.489 88.0081 126.46 87.9871 122.75C87.9771 121.057 86.1211 119.295 80.4871 115.629C76.3691 112.95 73.0001 110.417 73.0001 110C73.0001 109.583 76.3691 107.05 80.4871 104.371C86.1211 100.705 87.9771 98.9429 87.9871 97.2499C88.0091 93.5009 84.2991 94.6229 73.7501 101.557ZM105 101.532C99.7691 105.089 95.3671 108.81 95.2041 109.813C94.8181 112.193 114.102 125.27 117.32 124.809C122.001 124.139 120.299 121.209 112.087 115.798C102.38 109.403 102.38 110.597 112.087 104.202C117.683 100.515 120.03 98.3859 119.806 97.2019C119.131 93.6449 114.692 94.9429 105 101.532ZM389.5 100.813C378.146 108.171 377.101 109.349 379.535 112.038C382.53 115.348 398.83 125.179 400.719 124.816C404.925 124.006 403.093 121.073 395.087 115.798C390.664 112.884 387.045 110.275 387.045 110C387.045 109.725 390.664 107.116 395.087 104.202C400.687 100.512 403.03 98.3869 402.804 97.2019C402.191 93.9849 398.483 94.9919 389.5 100.813ZM419.75 101.557C407.096 109.875 407.101 110.156 420.024 118.516C430.804 125.489 434.008 126.46 433.987 122.75C433.977 121.057 432.121 119.295 426.487 115.629C422.369 112.95 419 110.417 419 110C419 109.583 422.369 107.05 426.487 104.371C432.121 100.705 433.977 98.9429 433.987 97.2499C434.009 93.5009 430.299 94.6229 419.75 101.557ZM640 101.557C627.608 109.95 627.608 110.102 639.946 118.317C650.062 125.052 653.314 126.229 654.351 123.529C655.072 121.649 653.768 120.387 645.632 115.086C641.984 112.71 639 110.421 639 110C639 109.579 641.984 107.29 645.632 104.914C653.768 99.6129 655.072 98.3509 654.351 96.4709C653.308 93.7539 649.558 95.0829 640 101.557ZM671.5 101.715C666 105.447 661.5 109.175 661.5 110C661.5 111.988 680.76 125 683.702 125C688.648 125 686.332 121.229 678.023 115.756C668.389 109.409 668.382 110.595 678.087 104.202C683.687 100.512 686.03 98.3869 685.804 97.2019C685.156 93.7989 681.438 94.9719 671.5 101.715ZM173.483 103.967C176.76 110.433 174.449 123 169.983 123C169.394 123 169 118.196 169 111C169 97.6009 169.7 96.5019 173.483 103.967ZM490.5 102C490.5 104.342 490.137 104.519 484.75 104.8L479 105.1V102V98.8999L484.75 99.1999C490.137 99.4809 490.5 99.6579 490.5 102Z" fill="black"/>
</svg>
